<?xml version="1.0" encoding="UTF-8" standalone="no"?>
<svg
   xmlns:dc="http://purl.org/dc/elements/1.1/"
   xmlns:cc="http://creativecommons.org/ns#"
   xmlns:rdf="http://www.w3.org/1999/02/22-rdf-syntax-ns#"
   xmlns:svg="http://www.w3.org/2000/svg"
   xmlns="http://www.w3.org/2000/svg"
   xmlns:sodipodi="http://sodipodi.sourceforge.net/DTD/sodipodi-0.dtd"
   xmlns:inkscape="http://www.inkscape.org/namespaces/inkscape"
   width="132.29167mm"
   height="132.29166mm"
   viewBox="0 0 132.29167 132.29166"
   version="1.1"
   id="svg8"
   inkscape:version="1.0.1 (3bc2e813f5, 2020-09-07)"
   sodipodi:docname="ChaOSS-logo.svg">
  <defs
     id="defs2">
    <rect
       x="-3.3378601e-06"
       y="164.48562"
       width="120.80322"
       height="31.57628"
       id="rect2412" />
    <rect
       x="-0.22272792"
       y="163.81744"
       width="134.30293"
       height="54.790249"
       id="rect2409" />
    <rect
       x="-3.3378601e-06"
       y="164.48563"
       width="120.80322"
       height="31.576281"
       id="rect2412-8" />
    <rect
       x="-3.3378601e-06"
       y="164.48563"
       width="120.80322"
       height="31.576281"
       id="rect2431" />
    <rect
       x="-3.3378601e-06"
       y="164.48563"
       width="120.80322"
       height="31.576281"
       id="rect2412-3" />
    <rect
       x="-3.3378601e-06"
       y="164.48563"
       width="120.80322"
       height="31.576281"
       id="rect2477" />
    <rect
       x="-3.3378601e-06"
       y="164.48563"
       width="120.80322"
       height="31.576281"
       id="rect2412-1" />
    <rect
       x="-3.3378601e-06"
       y="164.48563"
       width="120.80322"
       height="31.576281"
       id="rect2523" />
    <rect
       x="-3.3378601e-06"
       y="164.48563"
       width="120.80322"
       height="31.576281"
       id="rect2412-5" />
    <rect
       x="-3.3378601e-06"
       y="164.48563"
       width="120.80322"
       height="31.576281"
       id="rect2569" />
  </defs>
  <sodipodi:namedview
     id="base"
     pagecolor="#ffffff"
     bordercolor="#666666"
     borderopacity="1.0"
     inkscape:pageopacity="0.0"
     inkscape:pageshadow="2"
     inkscape:zoom="1.6800002"
     inkscape:cx="250.00002"
     inkscape:cy="178.57143"
     inkscape:document-units="mm"
     inkscape:current-layer="layer1"
     showgrid="false"
     inkscape:window-width="1920"
     inkscape:window-height="1009"
     inkscape:window-x="-8"
     inkscape:window-y="-8"
     inkscape:window-maximized="1"
     inkscape:document-rotation="0" />
  <metadata
     id="metadata5">
    <rdf:RDF>
      <cc:Work
         rdf:about="">
        <dc:format>image/svg+xml</dc:format>
        <dc:type
           rdf:resource="http://purl.org/dc/dcmitype/StillImage" />
        <dc:title></dc:title>
      </cc:Work>
    </rdf:RDF>
  </metadata>
  <g
     inkscape:label="Layer 1"
     inkscape:groupmode="layer"
     id="layer1"
     transform="translate(3.3378601e-6,-164.70834)">
    <ellipse
       style="opacity:1;fill:none;fill-opacity:1;stroke:#23552a;stroke-width:4.12538333;stroke-miterlimit:4;stroke-dasharray:none;stroke-opacity:1"
       id="path4518"
       cx="66.145836"
       cy="230.85417"
       rx="64.08313"
       ry="64.083122" />
    <g
       id="g2417">
      <path
         style="fill:#3fa648;fill-opacity:0.15686275;stroke:#23552a;stroke-width:3.51645184;stroke-linecap:butt;stroke-linejoin:round;stroke-miterlimit:4;stroke-dasharray:none;stroke-opacity:1"
         d="M 66.145831,295.24234 12.341406,241.43524 H 39.243618 Z"
         id="path5153"
         inkscape:connector-curvature="0"
         sodipodi:nodetypes="cccc" />
      <path
         style="fill:#3fa648;fill-opacity:0.3137255;stroke:#23552a;stroke-width:3.51645184;stroke-linecap:butt;stroke-linejoin:round;stroke-miterlimit:4;stroke-dasharray:none;stroke-opacity:1"
         d="m 39.243618,241.43524 h 26.902213 v 53.8071 z"
         id="path5157"
         inkscape:connector-curvature="0"
         sodipodi:nodetypes="cccc" />
      <path
         style="fill:#3fa648;fill-opacity:0.47058824;stroke:#23552a;stroke-width:3.51645184;stroke-linecap:butt;stroke-linejoin:round;stroke-miterlimit:4;stroke-dasharray:none;stroke-opacity:1"
         d="m 66.145831,241.43524 h 26.902213 l -26.902213,53.8071 z"
         id="path5159"
         inkscape:connector-curvature="0"
         sodipodi:nodetypes="cccc" />
      <path
         style="fill:#3fa648;fill-opacity:0.627451;stroke:#23552a;stroke-width:3.51645184;stroke-linecap:butt;stroke-linejoin:round;stroke-miterlimit:4;stroke-dasharray:none;stroke-opacity:1"
         d="m 66.145831,295.24234 53.804429,-53.8071 -26.902216,-3e-5 z"
         id="path5161"
         inkscape:connector-curvature="0"
         sodipodi:nodetypes="cccc" />
      <path
         style="fill:#3fa648;fill-opacity:0.07843138;stroke:#23552a;stroke-width:3.51645184;stroke-linecap:butt;stroke-linejoin:round;stroke-miterlimit:4;stroke-dasharray:none;stroke-opacity:1"
         d="m 12.341406,241.43524 13.451106,-20.4467 13.451106,20.4467 z"
         id="path5163"
         inkscape:connector-curvature="0"
         sodipodi:nodetypes="cccc" />
      <path
         style="fill:#3fa648;fill-opacity:0.15686275;stroke:#23552a;stroke-width:3.51645184;stroke-linecap:butt;stroke-linejoin:round;stroke-miterlimit:4;stroke-dasharray:none;stroke-opacity:1"
         d="m 25.792512,220.98854 26.902213,-1.07615 -13.451107,21.52285 z"
         id="path5165"
         inkscape:connector-curvature="0"
         sodipodi:nodetypes="cccc" />
      <path
         style="fill:#3fa648;fill-opacity:0.23529412;stroke:#23552a;stroke-width:3.51645184;stroke-linecap:butt;stroke-linejoin:round;stroke-miterlimit:4;stroke-dasharray:none;stroke-opacity:1"
         d="m 52.694725,219.91239 13.451106,21.52285 -26.902213,-3e-5 z"
         id="path5167"
         inkscape:connector-curvature="0"
         sodipodi:nodetypes="cccc" />
      <path
         style="fill:#3fa648;fill-opacity:0.3137255;stroke:#23552a;stroke-width:3.51645184;stroke-linecap:butt;stroke-linejoin:round;stroke-miterlimit:4;stroke-dasharray:none;stroke-opacity:1"
         d="M 52.694725,219.91239 H 79.596938 L 66.145831,241.43524 Z"
         id="path5169"
         inkscape:connector-curvature="0"
         sodipodi:nodetypes="cccc" />
      <path
         style="fill:#3fa648;fill-opacity:0.39215687;stroke:#23552a;stroke-width:3.51645184;stroke-linecap:butt;stroke-linejoin:round;stroke-miterlimit:4;stroke-dasharray:none;stroke-opacity:1"
         d="m 79.596938,219.91239 13.451106,21.52285 -26.902213,-3e-5 z"
         id="path5171"
         inkscape:connector-curvature="0"
         sodipodi:nodetypes="cccc" />
      <path
         style="fill:#3fa648;fill-opacity:0.47058824;stroke:#23552a;stroke-width:3.51645184;stroke-linecap:butt;stroke-linejoin:round;stroke-miterlimit:4;stroke-dasharray:none;stroke-opacity:1"
         d="m 79.596938,219.91239 26.902212,1.07615 -13.451106,20.4467 z"
         id="path5173"
         inkscape:connector-curvature="0"
         sodipodi:nodetypes="cccc" />
      <path
         style="fill:#3fa648;fill-opacity:0.54901963;stroke:#23552a;stroke-width:3.51645184;stroke-linecap:butt;stroke-linejoin:round;stroke-miterlimit:4;stroke-dasharray:none;stroke-opacity:1"
         d="m 106.49915,220.98854 13.45111,20.4467 -26.902216,-3e-5 z"
         id="path5175"
         inkscape:connector-curvature="0"
         sodipodi:nodetypes="cccc" />
    </g>
    <path
       style="opacity:1;fill:#3fa648;fill-opacity:1;stroke:#23552a;stroke-width:13.46869946;stroke-miterlimit:4;stroke-dasharray:0, 148.1556951;stroke-dashoffset:160;stroke-opacity:1"
       d="M 223.29144,483.31976 C 179.60454,478.2739 137.05245,460.38986 102.07315,432.3734 92.001706,424.30675 74.984676,407.15491 66.70079,396.72083 34.366363,355.99358 17.155859,308.8844 15.619153,256.89842 13.676784,191.18913 37.842631,130.21863 84.140228,84.019565 120.11524,48.121116 164.46119,25.711425 215.2944,17.742388 c 16.01333,-2.510383 52.0527,-2.733204 66.9226,-0.413764 14.21726,2.217638 27.67842,5.34148 39.47823,9.161449 121.31877,39.274698 188.81784,166.195547 153.73092,289.065557 -17.1788,60.15796 -60.43921,113.00619 -116.68027,142.54013 -23.2303,12.19896 -51.66025,21.22336 -76.94977,24.42586 -4.16688,0.52766 -8.64831,1.13293 -9.95873,1.34506 -1.3582,0.21985 -2.26301,0.0279 -2.10448,-0.44659 0.15295,-0.45774 42.9886,-43.54978 95.19034,-95.76008 76.88859,-76.90122 94.91224,-95.33987 94.91224,-97.09764 0,-1.19339 -1.48789,-4.40715 -3.30641,-7.14169 -1.81852,-2.73452 -13.76896,-20.87678 -26.55652,-40.31613 C 417.185,223.6652 406.2465,207.49393 405.6648,207.1684 c -0.5817,-0.32554 -24.90205,-1.56211 -54.04523,-2.74794 -73.1767,-2.97752 -130.27819,-2.98011 -203.66867,-0.009 -52.199223,2.11305 -53.060481,2.17593 -54.780902,3.99955 -0.961346,1.01904 -8.045866,11.51236 -15.743377,23.31851 -7.697511,11.80616 -19.126023,29.23129 -25.396692,38.72251 -8.254228,12.49352 -11.402115,17.95345 -11.404471,19.78078 -0.0029,2.22962 11.164715,13.69229 95.749402,98.27941 52.66395,52.66548 95.18506,95.70628 94.49135,95.64621 -0.69373,-0.0601 -4.10237,-0.43735 -7.57477,-0.83841 z"
       id="path5332"
       inkscape:connector-curvature="0"
       transform="matrix(0.26458333,0,0,0.26458333,-3.3378601e-6,164.70834)" />
    <g
       aria-label="C"
       transform="matrix(1.0485347,0,0,1.0485347,14.359886,21.050012)"
       id="text2410"
       style="font-size:22.5778px;line-height:1.25;font-family:Comfortaa;-inkscape-font-specification:Comfortaa;text-align:center;letter-spacing:0px;word-spacing:0px;white-space:pre;shape-inside:url(#rect2412);fill:#23552a;fill-opacity:1">
      <path
         id="path2606"
         style="font-style:normal;font-variant:normal;font-weight:bold;font-stretch:normal;font-size:22.5778px;font-family:Comfortaa;-inkscape-font-specification:'Comfortaa Bold';text-align:start;text-anchor:start;fill:#9b552a;fill-opacity:1"
         sodipodi:type="inkscape:offset"
         inkscape:radius="0"
         inkscape:original="M 10.160156 167.28906 C 8.5496067 167.28906 7.0739912 167.69501 5.734375 168.50781 C 4.4098107 169.30557 3.3633483 170.39648 2.5957031 171.78125 C 1.8280579 173.15097 1.4453125 174.66461 1.4453125 176.32031 C 1.4453125 177.99107 1.8280579 179.51952 2.5957031 180.9043 C 3.3633483 182.28906 4.4098107 183.37998 5.734375 184.17773 C 7.0739912 184.97548 8.5496067 185.37305 10.160156 185.37305 C 12.222262 185.37305 14.065804 184.71967 15.691406 183.41016 C 15.932236 183.16933 16.052734 182.89031 16.052734 182.57422 C 16.052734 182.24308 15.95544 181.97888 15.759766 181.7832 C 15.579143 181.57248 15.344579 181.46875 15.058594 181.46875 C 14.817764 181.46875 14.570334 181.55765 14.314453 181.73828 C 12.989888 182.7317 11.605136 183.22852 10.160156 183.22852 C 8.9861108 183.22852 7.9016264 182.91986 6.9082031 182.30273 C 5.9298318 181.68561 5.1475697 180.85051 4.5605469 179.79688 C 3.9885759 178.74325 3.703125 177.58467 3.703125 176.32031 C 3.703125 175.07101 3.9885759 173.91887 4.5605469 172.86523 C 5.1475697 171.79655 5.9298318 170.95502 6.9082031 170.33789 C 7.9016264 169.72076 8.9861109 169.41211 10.160156 169.41211 C 11.093372 169.41211 11.85243 169.53261 12.439453 169.77344 C 13.026476 169.99922 13.628967 170.37553 14.246094 170.90234 C 14.486924 171.09802 14.751124 171.19531 15.037109 171.19531 C 15.323095 171.19531 15.570524 171.09802 15.78125 170.90234 C 16.007028 170.70667 16.121094 170.45729 16.121094 170.15625 C 16.121094 169.96058 16.089504 169.79562 16.029297 169.66016 C 15.969089 169.50964 15.850544 169.36594 15.669922 169.23047 C 14.811965 168.53808 13.960092 168.04127 13.117188 167.74023 C 12.289335 167.43919 11.304098 167.28906 10.160156 167.28906 z "
         d="m 10.160156,167.28906 c -1.6105493,0 -3.0861648,0.40595 -4.425781,1.21875 -1.3245643,0.79776 -2.3710267,1.88867 -3.1386719,3.27344 -0.7676452,1.36972 -1.1503906,2.88336 -1.1503906,4.53906 0,1.67076 0.3827454,3.19921 1.1503906,4.58399 0.7676452,1.38476 1.8141076,2.47568 3.1386719,3.27343 1.3396162,0.79775 2.8152317,1.19532 4.425781,1.19532 2.062106,0 3.905648,-0.65338 5.53125,-1.96289 0.24083,-0.24083 0.361328,-0.51985 0.361328,-0.83594 0,-0.33114 -0.09729,-0.59534 -0.292968,-0.79102 -0.180623,-0.21072 -0.415187,-0.31445 -0.701172,-0.31445 -0.24083,0 -0.48826,0.0889 -0.744141,0.26953 -1.324565,0.99342 -2.709317,1.49024 -4.154297,1.49024 -1.1740452,0 -2.2585296,-0.30866 -3.2519529,-0.92579 -0.9783713,-0.61712 -1.7606334,-1.45222 -2.3476562,-2.50585 -0.571971,-1.05363 -0.8574219,-2.21221 -0.8574219,-3.47657 0,-1.2493 0.2854509,-2.40144 0.8574219,-3.45508 0.5870228,-1.06868 1.3692849,-1.91021 2.3476562,-2.52734 0.9934233,-0.61713 2.0779078,-0.92578 3.2519529,-0.92578 0.933216,0 1.692274,0.1205 2.279297,0.36133 0.587023,0.22578 1.189514,0.60209 1.806641,1.1289 0.24083,0.19568 0.50503,0.29297 0.791015,0.29297 0.285986,0 0.533415,-0.0973 0.744141,-0.29297 0.225778,-0.19567 0.339844,-0.44505 0.339844,-0.74609 0,-0.19567 -0.03159,-0.36063 -0.0918,-0.49609 -0.06021,-0.15052 -0.178753,-0.29422 -0.359375,-0.42969 -0.857957,-0.69239 -1.70983,-1.1892 -2.552734,-1.49024 -0.827853,-0.30104 -1.81309,-0.45117 -2.957032,-0.45117 z" />
    </g>
    <g
       aria-label="ha"
       transform="matrix(1.0485347,0,0,1.0485347,32.681556,20.813269)"
       id="text2410-1"
       style="font-size:22.5778px;line-height:1.25;font-family:Comfortaa;-inkscape-font-specification:Comfortaa;text-align:center;letter-spacing:0px;word-spacing:0px;white-space:pre;shape-inside:url(#rect2412-8);fill:#23552a;fill-opacity:1">
      <path
         id="path2613"
         style="font-style:normal;font-variant:normal;font-weight:300;font-stretch:normal;font-size:22.5778px;font-family:Comfortaa;-inkscape-font-specification:'Comfortaa Light';text-align:start;text-anchor:start;fill:#23552a;fill-opacity:1"
         sodipodi:type="inkscape:offset"
         inkscape:radius="0"
         inkscape:original="M 2.7089844 167.51562 C 2.5133101 167.51563 2.3483574 167.5749 2.2128906 167.69531 C 2.0924757 167.81573 2.03125 167.98069 2.03125 168.19141 L 2.03125 184.4707 C 2.03125 184.66638 2.0924757 184.83133 2.2128906 184.9668 C 2.3483574 185.08721 2.5133101 185.14844 2.7089844 185.14844 C 2.9197105 185.14844 3.0846632 185.08721 3.2050781 184.9668 C 3.3254931 184.83133 3.3867188 184.66638 3.3867188 184.4707 L 3.3867188 177.5625 C 3.3867188 176.90022 3.5748752 176.29773 3.9511719 175.75586 C 4.3274686 175.19894 4.8390979 174.76979 5.4863281 174.46875 C 6.1486103 174.15266 6.8780323 173.99414 7.6757812 173.99414 C 8.9702418 173.99414 10.016704 174.37045 10.814453 175.12305 C 11.627254 175.87564 12.033203 176.96656 12.033203 178.39648 L 12.033203 184.4707 C 12.033203 184.66638 12.094429 184.83133 12.214844 184.9668 C 12.35031 185.08721 12.515263 185.14844 12.710938 185.14844 C 12.906612 185.14844 13.065132 185.08721 13.185547 184.9668 C 13.321014 184.83133 13.388672 184.66638 13.388672 184.4707 L 13.388672 178.39648 C 13.388672 177.19234 13.141243 176.16265 12.644531 175.30469 C 12.162872 174.43168 11.484337 173.76796 10.611328 173.31641 C 9.7533719 172.86485 8.7745675 172.64062 7.6757812 172.64062 C 6.8027729 172.64062 5.9973071 172.82039 5.2597656 173.18164 C 4.5222241 173.52783 3.8984822 174.01626 3.3867188 174.64844 L 3.3867188 168.19141 C 3.3867188 167.98069 3.3254931 167.81573 3.2050781 167.69531 C 3.0846632 167.5749 2.9197105 167.51562 2.7089844 167.51562 z M 22.871094 172.66211 C 21.681996 172.66211 20.605897 172.94113 19.642578 173.49805 C 18.679259 174.03991 17.918247 174.79254 17.361328 175.75586 C 16.819461 176.71918 16.548828 177.79528 16.548828 178.98438 C 16.548828 180.15842 16.819461 181.22613 17.361328 182.18945 C 17.918247 183.15277 18.679259 183.91378 19.642578 184.4707 C 20.605897 185.01257 21.681996 185.2832 22.871094 185.2832 C 23.939776 185.2832 24.903762 185.05702 25.761719 184.60547 C 26.634727 184.13886 27.319694 183.50673 27.816406 182.70898 L 27.816406 184.4707 C 27.816406 184.66638 27.875679 184.83133 27.996094 184.9668 C 28.13156 185.08721 28.296513 185.14844 28.492188 185.14844 C 28.702913 185.14844 28.86982 185.08721 28.990234 184.9668 C 29.11065 184.83133 29.169922 184.66638 29.169922 184.4707 L 29.169922 178.98438 C 29.169922 177.79528 28.892857 176.71918 28.335938 175.75586 C 27.79407 174.79254 27.041444 174.03991 26.078125 173.49805 C 25.114806 172.94113 24.04514 172.66211 22.871094 172.66211 z M 22.871094 173.92773 C 23.80431 173.92773 24.647797 174.15196 25.400391 174.60352 C 26.152984 175.04002 26.738704 175.64252 27.160156 176.41016 C 27.59666 177.1778 27.816406 178.03611 27.816406 178.98438 C 27.816406 179.93265 27.59666 180.79095 27.160156 181.55859 C 26.738704 182.32624 26.152984 182.92873 25.400391 183.36523 C 24.647797 183.80173 23.80431 184.01953 22.871094 184.01953 C 21.937878 184.01953 21.09439 183.80173 20.341797 183.36523 C 19.589204 182.92873 18.995098 182.32624 18.558594 181.55859 C 18.122089 180.79095 17.904297 179.93265 17.904297 178.98438 C 17.904297 178.03611 18.122089 177.1778 18.558594 176.41016 C 18.995098 175.64252 19.589204 175.04002 20.341797 174.60352 C 21.09439 174.15196 21.937878 173.92773 22.871094 173.92773 z "
         d="m 2.7089844,167.51562 c -0.1956743,10e-6 -0.360627,0.0593 -0.4960938,0.17969 -0.1204149,0.12042 -0.1816406,0.28538 -0.1816406,0.4961 v 16.27929 c 0,0.19568 0.061226,0.36063 0.1816406,0.4961 0.1354668,0.12041 0.3004195,0.18164 0.4960938,0.18164 0.2107261,0 0.3756788,-0.0612 0.4960937,-0.18164 0.120415,-0.13547 0.1816407,-0.30042 0.1816407,-0.4961 v -6.9082 c 0,-0.66228 0.1881564,-1.26477 0.5644531,-1.80664 0.3762967,-0.55692 0.887926,-0.98607 1.5351562,-1.28711 0.6622822,-0.31609 1.3917042,-0.47461 2.1894531,-0.47461 1.2944606,0 2.3409228,0.37631 3.1386718,1.12891 0.812801,0.75259 1.21875,1.84351 1.21875,3.27343 v 6.07422 c 0,0.19568 0.06123,0.36063 0.181641,0.4961 0.135466,0.12041 0.300419,0.18164 0.496094,0.18164 0.195674,0 0.354194,-0.0612 0.474609,-0.18164 0.135467,-0.13547 0.203125,-0.30042 0.203125,-0.4961 v -6.07422 c 0,-1.20414 -0.247429,-2.23383 -0.744141,-3.09179 -0.481659,-0.87301 -1.160194,-1.53673 -2.033203,-1.98828 -0.8579561,-0.45156 -1.8367605,-0.67579 -2.9355468,-0.67579 -0.8730083,0 -1.6784741,0.17977 -2.4160156,0.54102 -0.7375415,0.34619 -1.3612834,0.83462 -1.8730468,1.4668 v -6.45703 c 0,-0.21072 -0.061226,-0.37568 -0.1816407,-0.4961 -0.1204149,-0.12041 -0.2853676,-0.17969 -0.4960937,-0.17969 z m 20.1621096,5.14649 c -1.189098,0 -2.265197,0.27902 -3.228516,0.83594 -0.963319,0.54186 -1.724331,1.29449 -2.28125,2.25781 -0.541867,0.96332 -0.8125,2.03942 -0.8125,3.22852 0,1.17404 0.270633,2.24175 0.8125,3.20507 0.556919,0.96332 1.317931,1.72433 2.28125,2.28125 0.963319,0.54187 2.039418,0.8125 3.228516,0.8125 1.068682,0 2.032668,-0.22618 2.890625,-0.67773 0.873008,-0.46661 1.557975,-1.09874 2.054687,-1.89649 v 1.76172 c 0,0.19568 0.05927,0.36063 0.179688,0.4961 0.135466,0.12041 0.300419,0.18164 0.496094,0.18164 0.210725,0 0.377632,-0.0612 0.498046,-0.18164 0.120416,-0.13547 0.179688,-0.30042 0.179688,-0.4961 v -5.48632 c 0,-1.1891 -0.277065,-2.2652 -0.833984,-3.22852 -0.541868,-0.96332 -1.294494,-1.71595 -2.257813,-2.25781 -0.963319,-0.55692 -2.032985,-0.83594 -3.207031,-0.83594 z m 0,1.26562 c 0.933216,0 1.776703,0.22423 2.529297,0.67579 0.752593,0.4365 1.338313,1.039 1.759765,1.80664 0.436504,0.76764 0.65625,1.62595 0.65625,2.57422 0,0.94827 -0.219746,1.80657 -0.65625,2.57421 -0.421452,0.76765 -1.007172,1.37014 -1.759765,1.80664 -0.752594,0.4365 -1.596081,0.6543 -2.529297,0.6543 -0.933216,0 -1.776704,-0.2178 -2.529297,-0.6543 -0.752593,-0.4365 -1.346699,-1.03899 -1.783203,-1.80664 -0.436505,-0.76764 -0.654297,-1.62594 -0.654297,-2.57421 0,-0.94827 0.217792,-1.80658 0.654297,-2.57422 0.436504,-0.76764 1.03061,-1.37014 1.783203,-1.80664 0.752593,-0.45156 1.596081,-0.67579 2.529297,-0.67579 z" />
    </g>
    <g
       aria-label="O"
       transform="matrix(1.0485347,0,0,1.0485347,64.756705,21.050005)"
       id="text2410-19"
       style="font-size:22.5778px;line-height:1.25;font-family:Comfortaa;-inkscape-font-specification:Comfortaa;text-align:center;letter-spacing:0px;word-spacing:0px;white-space:pre;shape-inside:url(#rect2412-3);fill:#23552a;fill-opacity:1">
      <path
         id="path2618"
         style="font-size:22.5778px;text-align:start;text-anchor:start;fill:#09336d;fill-opacity:1"
         sodipodi:type="inkscape:offset"
         inkscape:radius="0"
         inkscape:original="M 10.408203 167.28906 C 8.6922904 167.28906 7.1490168 167.68019 5.7792969 168.46289 C 4.4095769 169.24558 3.3334783 170.32169 2.5507812 171.69141 C 1.783136 173.06113 1.4003906 174.6044 1.4003906 176.32031 C 1.4003906 178.03623 1.783136 179.58593 2.5507812 180.9707 C 3.3334783 182.34042 4.4095769 183.41652 5.7792969 184.19922 C 7.1490168 184.98191 8.6922904 185.37305 10.408203 185.37305 C 12.109064 185.37305 13.643953 184.98191 15.013672 184.19922 C 16.398444 183.41652 17.474542 182.34042 18.242188 180.9707 C 19.024885 179.58593 19.416016 178.03623 19.416016 176.32031 C 19.416016 174.6044 19.024885 173.06113 18.242188 171.69141 C 17.474542 170.32169 16.398444 169.24558 15.013672 168.46289 C 13.643953 167.68019 12.109064 167.28906 10.408203 167.28906 z M 10.408203 168.95898 C 11.777923 168.95898 13.012542 169.28245 14.111328 169.92969 C 15.225167 170.57691 16.098291 171.46681 16.730469 172.5957 C 17.362647 173.70954 17.677734 174.95059 17.677734 176.32031 C 17.677734 177.70509 17.362647 178.96095 16.730469 180.08984 C 16.098291 181.20368 15.225167 182.08519 14.111328 182.73242 C 13.012542 183.37965 11.777923 183.70313 10.408203 183.70312 C 9.0234315 183.70313 7.7739945 183.37965 6.6601562 182.73242 C 5.56137 182.08519 4.6966316 181.20368 4.0644531 180.08984 C 3.4322747 178.96095 3.1152344 177.70509 3.1152344 176.32031 C 3.1152344 174.95059 3.4322747 173.70954 4.0644531 172.5957 C 4.6966316 171.46681 5.56137 170.57691 6.6601562 169.92969 C 7.7739945 169.28245 9.0234315 168.95898 10.408203 168.95898 z "
         d="m 10.408203,167.28906 c -1.7159126,0 -3.2591862,0.39113 -4.6289061,1.17383 -1.36972,0.78269 -2.4458186,1.8588 -3.2285157,3.22852 -0.7676452,1.36972 -1.1503906,2.91299 -1.1503906,4.6289 0,1.71592 0.3827454,3.26562 1.1503906,4.65039 0.7826971,1.36972 1.8587957,2.44582 3.2285157,3.22852 1.3697199,0.78269 2.9129935,1.17383 4.6289061,1.17383 1.700861,0 3.23575,-0.39114 4.605469,-1.17383 1.384772,-0.7827 2.46087,-1.8588 3.228516,-3.22852 0.782697,-1.38477 1.173828,-2.93447 1.173828,-4.65039 0,-1.71591 -0.391131,-3.25918 -1.173828,-4.6289 -0.767646,-1.36972 -1.843744,-2.44583 -3.228516,-3.22852 -1.369719,-0.7827 -2.904608,-1.17383 -4.605469,-1.17383 z m 0,1.66992 c 1.36972,0 2.604339,0.32347 3.703125,0.97071 1.113839,0.64722 1.986963,1.53712 2.619141,2.66601 0.632178,1.11384 0.947265,2.35489 0.947265,3.72461 0,1.38478 -0.315087,2.64064 -0.947265,3.76953 -0.632178,1.11384 -1.505302,1.99535 -2.619141,2.64258 -1.098786,0.64723 -2.333405,0.97071 -3.703125,0.9707 -1.3847715,10e-6 -2.6342085,-0.32347 -3.7480468,-0.9707 -1.0987862,-0.64723 -1.9635246,-1.52874 -2.5957031,-2.64258 -0.6321784,-1.12889 -0.9492187,-2.38475 -0.9492187,-3.76953 0,-1.36972 0.3170403,-2.61077 0.9492187,-3.72461 0.6321785,-1.12889 1.4969169,-2.01879 2.5957031,-2.66601 1.1138383,-0.64724 2.3632753,-0.97071 3.7480468,-0.97071 z" />
    </g>
    <g
       aria-label="S"
       transform="matrix(1.0485347,0,0,1.0485347,86.647824,21.050005)"
       id="text2410-0"
       style="font-size:22.5778px;line-height:1.25;font-family:Comfortaa;-inkscape-font-specification:Comfortaa;text-align:center;letter-spacing:0px;word-spacing:0px;white-space:pre;shape-inside:url(#rect2412-1);fill:#23552a;fill-opacity:1">
      <path
         id="path2623"
         style="font-size:22.5778px;text-align:start;text-anchor:start;fill:#234c86;fill-opacity:1"
         sodipodi:type="inkscape:offset"
         inkscape:radius="0"
         inkscape:original="M 7.6757812 167.28906 C 6.5769949 167.28906 5.5917583 167.47722 4.71875 167.85352 C 3.8607935 168.21476 3.1842116 168.74121 2.6875 169.43359 C 2.2058403 170.11093 1.9648438 170.90157 1.9648438 171.80469 C 1.9648438 173.0841 2.4616549 174.16858 3.4550781 175.05664 C 4.4635533 175.92965 5.8399209 176.47091 7.5859375 176.68164 C 8.9857611 176.86226 10.032224 177.27659 10.724609 177.92383 C 11.432047 178.57105 11.785156 179.36814 11.785156 180.31641 C 11.785156 181.38509 11.408843 182.22019 10.65625 182.82227 C 9.9036567 183.40929 8.9100343 183.70313 7.6757812 183.70312 C 6.6070987 183.70312 5.6663164 183.50015 4.8535156 183.09375 C 4.0557666 182.6723 3.4848648 182.12265 3.1386719 181.44531 C 3.0634125 181.26469 2.9429143 181.12938 2.7773438 181.03906 C 2.6268251 180.9337 2.4618724 180.88086 2.28125 180.88086 C 2.0103164 180.88086 1.7905705 180.9569 1.625 181.10742 C 1.4744813 181.24289 1.4003906 181.41427 1.4003906 181.625 C 1.4003906 181.76047 1.430027 181.88097 1.4902344 181.98633 C 1.9718942 183.02491 2.7625419 183.85358 3.8613281 184.4707 C 4.9751663 185.07278 6.2458538 185.37305 7.6757812 185.37305 C 8.7745675 185.37305 9.7681899 185.17846 10.65625 184.78711 C 11.54431 184.38071 12.244096 183.79304 12.755859 183.02539 C 13.267623 182.25774 13.523438 181.3466 13.523438 180.29297 C 13.523437 178.86304 13.064648 177.71285 12.146484 176.83984 C 11.22832 175.96684 9.8371345 175.39398 7.9707031 175.12305 C 5.1259002 174.74675 3.703125 173.67904 3.703125 171.91797 C 3.703125 170.9697 4.0562341 170.23832 4.7636719 169.72656 C 5.4711096 169.2148 6.4350956 168.95898 7.6542969 168.95898 C 9.3551577 168.97404 10.625845 169.64419 11.46875 170.96875 C 11.559061 171.11927 11.673127 171.23976 11.808594 171.33008 C 11.959112 171.40534 12.117632 171.44336 12.283203 171.44336 C 12.433722 171.44336 12.569038 171.41372 12.689453 171.35352 C 12.960386 171.18794 13.095703 170.96177 13.095703 170.67578 C 13.095703 170.48011 13.042863 170.30033 12.9375 170.13477 C 12.425737 169.29186 11.717565 168.60689 10.814453 168.08008 C 9.9113409 167.55326 8.8648787 167.28906 7.6757812 167.28906 z "
         d="m 7.6757812,167.28906 c -1.0987863,0 -2.0840229,0.18816 -2.9570312,0.56446 -0.8579565,0.36124 -1.5345384,0.88769 -2.03125,1.58007 -0.4816597,0.67734 -0.7226562,1.46798 -0.7226562,2.3711 0,1.27941 0.4968111,2.36389 1.4902343,3.25195 1.0084752,0.87301 2.3848428,1.41427 4.1308594,1.625 1.3998236,0.18062 2.4462865,0.59495 3.1386715,1.24219 0.707438,0.64722 1.060547,1.44431 1.060547,2.39258 0,1.06868 -0.376313,1.90378 -1.128906,2.50586 -0.7525933,0.58702 -1.7462157,0.88086 -2.9804688,0.88085 -1.0686825,0 -2.0094648,-0.20297 -2.8222656,-0.60937 -0.797749,-0.42145 -1.3686508,-0.9711 -1.7148437,-1.64844 -0.075259,-0.18062 -0.1957576,-0.31593 -0.3613281,-0.40625 -0.1505187,-0.10536 -0.3154714,-0.1582 -0.4960938,-0.1582 -0.2709336,0 -0.4906795,0.076 -0.65625,0.22656 -0.1505187,0.13547 -0.2246094,0.30685 -0.2246094,0.51758 0,0.13547 0.029636,0.25597 0.089844,0.36133 0.4816598,1.03858 1.2723075,1.86725 2.3710937,2.48437 1.1138382,0.60208 2.3845257,0.90235 3.8144531,0.90235 1.0987863,0 2.0924087,-0.19459 2.9804688,-0.58594 0.88806,-0.4064 1.587846,-0.99407 2.099609,-1.76172 0.511764,-0.76765 0.767579,-1.67879 0.767579,-2.73242 -1e-6,-1.42993 -0.45879,-2.58012 -1.376954,-3.45313 -0.918164,-0.873 -2.3093495,-1.44586 -4.1757809,-1.71679 -2.8448029,-0.3763 -4.2675781,-1.44401 -4.2675781,-3.20508 0,-0.94827 0.3531091,-1.67965 1.0605469,-2.19141 0.7074377,-0.51176 1.6714237,-0.76758 2.890625,-0.76758 1.7008608,0.0151 2.9715481,0.68521 3.8144531,2.00977 0.09031,0.15052 0.204377,0.27101 0.339844,0.36133 0.150518,0.0753 0.309038,0.11328 0.474609,0.11328 0.150519,0 0.285835,-0.0296 0.40625,-0.0898 0.270933,-0.16558 0.40625,-0.39175 0.40625,-0.67774 0,-0.19567 -0.05284,-0.37545 -0.158203,-0.54101 -0.511763,-0.84291 -1.219935,-1.52788 -2.123047,-2.05469 -0.9031121,-0.52682 -1.9495743,-0.79102 -3.1386718,-0.79102 z" />
    </g>
    <g
       aria-label="S"
       transform="matrix(1.0485347,0,0,1.0485347,102.23934,21.050005)"
       id="text2410-8"
       style="font-size:22.5778px;line-height:1.25;font-family:Comfortaa;-inkscape-font-specification:Comfortaa;text-align:center;letter-spacing:0px;word-spacing:0px;white-space:pre;shape-inside:url(#rect2412-5);fill:#23552a;fill-opacity:1">
      <path
         id="path2628"
         style="font-size:22.5778px;text-align:start;text-anchor:start;fill:#2355b1;fill-opacity:1"
         sodipodi:type="inkscape:offset"
         inkscape:radius="0"
         inkscape:original="M 7.6757812 167.28906 C 6.5769949 167.28906 5.5917583 167.47722 4.71875 167.85352 C 3.8607935 168.21476 3.1842116 168.74121 2.6875 169.43359 C 2.2058403 170.11093 1.9648438 170.90157 1.9648438 171.80469 C 1.9648438 173.0841 2.4616549 174.16858 3.4550781 175.05664 C 4.4635533 175.92965 5.8399209 176.47091 7.5859375 176.68164 C 8.9857611 176.86226 10.032224 177.27659 10.724609 177.92383 C 11.432047 178.57105 11.785156 179.36814 11.785156 180.31641 C 11.785156 181.38509 11.408843 182.22019 10.65625 182.82227 C 9.9036567 183.40929 8.9100343 183.70313 7.6757812 183.70312 C 6.6070987 183.70312 5.6663164 183.50015 4.8535156 183.09375 C 4.0557666 182.6723 3.4848648 182.12265 3.1386719 181.44531 C 3.0634125 181.26469 2.9429143 181.12938 2.7773438 181.03906 C 2.6268251 180.9337 2.4618724 180.88086 2.28125 180.88086 C 2.0103164 180.88086 1.7905705 180.9569 1.625 181.10742 C 1.4744813 181.24289 1.4003906 181.41427 1.4003906 181.625 C 1.4003906 181.76047 1.430027 181.88097 1.4902344 181.98633 C 1.9718942 183.02491 2.7625419 183.85358 3.8613281 184.4707 C 4.9751663 185.07278 6.2458538 185.37305 7.6757812 185.37305 C 8.7745675 185.37305 9.7681899 185.17846 10.65625 184.78711 C 11.54431 184.38071 12.244096 183.79304 12.755859 183.02539 C 13.267623 182.25774 13.523438 181.3466 13.523438 180.29297 C 13.523437 178.86304 13.064648 177.71285 12.146484 176.83984 C 11.22832 175.96684 9.8371345 175.39398 7.9707031 175.12305 C 5.1259002 174.74675 3.703125 173.67904 3.703125 171.91797 C 3.703125 170.9697 4.0562341 170.23832 4.7636719 169.72656 C 5.4711096 169.2148 6.4350956 168.95898 7.6542969 168.95898 C 9.3551577 168.97404 10.625845 169.64419 11.46875 170.96875 C 11.559061 171.11927 11.673127 171.23976 11.808594 171.33008 C 11.959112 171.40534 12.117632 171.44336 12.283203 171.44336 C 12.433722 171.44336 12.569038 171.41372 12.689453 171.35352 C 12.960386 171.18794 13.095703 170.96177 13.095703 170.67578 C 13.095703 170.48011 13.042863 170.30033 12.9375 170.13477 C 12.425737 169.29186 11.717565 168.60689 10.814453 168.08008 C 9.9113409 167.55326 8.8648787 167.28906 7.6757812 167.28906 z "
         d="m 7.6757812,167.28906 c -1.0987863,0 -2.0840229,0.18816 -2.9570312,0.56446 -0.8579565,0.36124 -1.5345384,0.88769 -2.03125,1.58007 -0.4816597,0.67734 -0.7226562,1.46798 -0.7226562,2.3711 0,1.27941 0.4968111,2.36389 1.4902343,3.25195 1.0084752,0.87301 2.3848428,1.41427 4.1308594,1.625 1.3998236,0.18062 2.4462865,0.59495 3.1386715,1.24219 0.707438,0.64722 1.060547,1.44431 1.060547,2.39258 0,1.06868 -0.376313,1.90378 -1.128906,2.50586 -0.7525933,0.58702 -1.7462157,0.88086 -2.9804688,0.88085 -1.0686825,0 -2.0094648,-0.20297 -2.8222656,-0.60937 -0.797749,-0.42145 -1.3686508,-0.9711 -1.7148437,-1.64844 -0.075259,-0.18062 -0.1957576,-0.31593 -0.3613281,-0.40625 -0.1505187,-0.10536 -0.3154714,-0.1582 -0.4960938,-0.1582 -0.2709336,0 -0.4906795,0.076 -0.65625,0.22656 -0.1505187,0.13547 -0.2246094,0.30685 -0.2246094,0.51758 0,0.13547 0.029636,0.25597 0.089844,0.36133 0.4816598,1.03858 1.2723075,1.86725 2.3710937,2.48437 1.1138382,0.60208 2.3845257,0.90235 3.8144531,0.90235 1.0987863,0 2.0924087,-0.19459 2.9804688,-0.58594 0.88806,-0.4064 1.587846,-0.99407 2.099609,-1.76172 0.511764,-0.76765 0.767579,-1.67879 0.767579,-2.73242 -1e-6,-1.42993 -0.45879,-2.58012 -1.376954,-3.45313 -0.918164,-0.873 -2.3093495,-1.44586 -4.1757809,-1.71679 -2.8448029,-0.3763 -4.2675781,-1.44401 -4.2675781,-3.20508 0,-0.94827 0.3531091,-1.67965 1.0605469,-2.19141 0.7074377,-0.51176 1.6714237,-0.76758 2.890625,-0.76758 1.7008608,0.0151 2.9715481,0.68521 3.8144531,2.00977 0.09031,0.15052 0.204377,0.27101 0.339844,0.36133 0.150518,0.0753 0.309038,0.11328 0.474609,0.11328 0.150519,0 0.285835,-0.0296 0.40625,-0.0898 0.270933,-0.16558 0.40625,-0.39175 0.40625,-0.67774 0,-0.19567 -0.05284,-0.37545 -0.158203,-0.54101 -0.511763,-0.84291 -1.219935,-1.52788 -2.123047,-2.05469 -0.9031121,-0.52682 -1.9495743,-0.79102 -3.1386718,-0.79102 z" />
    </g>
  </g>
</svg>
